<mxfile host="app.diagrams.net" modified="2023-12-14T06:21:38.239Z" agent="Mozilla/5.0 (Windows NT 10.0; Win64; x64) AppleWebKit/537.36 (KHTML, like Gecko) Chrome/120.0.0.0 Safari/537.36" etag="_H_dKZeFlo5bWfK5cfyY" version="22.1.8" type="github">
  <diagram name="Page-1" id="HIY6HfnzrdasZDZZCejf">
    <mxGraphModel dx="1221" dy="733" grid="1" gridSize="10" guides="1" tooltips="1" connect="1" arrows="1" fold="1" page="1" pageScale="1" pageWidth="850" pageHeight="1100" math="0" shadow="0">
      <root>
        <mxCell id="0" />
        <mxCell id="1" parent="0" />
        <mxCell id="QxyZenJV8a2ze9IC9UwF-28" value="" style="rounded=0;whiteSpace=wrap;html=1;" vertex="1" parent="1">
          <mxGeometry x="90" y="40" width="330" height="450" as="geometry" />
        </mxCell>
        <mxCell id="QxyZenJV8a2ze9IC9UwF-1" value="Member" style="shape=umlActor;verticalLabelPosition=bottom;verticalAlign=top;html=1;outlineConnect=0;" vertex="1" parent="1">
          <mxGeometry x="30" y="160" width="30" height="60" as="geometry" />
        </mxCell>
        <mxCell id="QxyZenJV8a2ze9IC9UwF-5" value="Register Member" style="ellipse;whiteSpace=wrap;html=1;" vertex="1" parent="1">
          <mxGeometry x="240" y="50" width="90" height="60" as="geometry" />
        </mxCell>
        <mxCell id="QxyZenJV8a2ze9IC9UwF-10" value="Upload File / Make Folder" style="ellipse;whiteSpace=wrap;html=1;" vertex="1" parent="1">
          <mxGeometry x="240" y="120" width="90" height="60" as="geometry" />
        </mxCell>
        <mxCell id="QxyZenJV8a2ze9IC9UwF-11" value="Download File" style="ellipse;whiteSpace=wrap;html=1;" vertex="1" parent="1">
          <mxGeometry x="240" y="190" width="90" height="60" as="geometry" />
        </mxCell>
        <mxCell id="QxyZenJV8a2ze9IC9UwF-12" value="Share Directory" style="ellipse;whiteSpace=wrap;html=1;" vertex="1" parent="1">
          <mxGeometry x="240" y="260" width="90" height="60" as="geometry" />
        </mxCell>
        <mxCell id="QxyZenJV8a2ze9IC9UwF-13" value="Update / Delete Member" style="ellipse;whiteSpace=wrap;html=1;" vertex="1" parent="1">
          <mxGeometry x="240" y="330" width="90" height="60" as="geometry" />
        </mxCell>
        <mxCell id="QxyZenJV8a2ze9IC9UwF-17" value="Move Directory" style="ellipse;whiteSpace=wrap;html=1;" vertex="1" parent="1">
          <mxGeometry x="240" y="400" width="90" height="60" as="geometry" />
        </mxCell>
        <mxCell id="QxyZenJV8a2ze9IC9UwF-19" value="" style="endArrow=classic;html=1;rounded=0;edgeStyle=orthogonalEdgeStyle;" edge="1" parent="1" target="QxyZenJV8a2ze9IC9UwF-5">
          <mxGeometry width="50" height="50" relative="1" as="geometry">
            <mxPoint x="70" y="189" as="sourcePoint" />
            <mxPoint x="170" y="190" as="targetPoint" />
            <Array as="points">
              <mxPoint x="70" y="190" />
              <mxPoint x="120" y="190" />
            </Array>
          </mxGeometry>
        </mxCell>
        <mxCell id="QxyZenJV8a2ze9IC9UwF-20" value="" style="endArrow=classic;html=1;rounded=0;edgeStyle=orthogonalEdgeStyle;entryX=0;entryY=0.5;entryDx=0;entryDy=0;" edge="1" parent="1" target="QxyZenJV8a2ze9IC9UwF-10">
          <mxGeometry width="50" height="50" relative="1" as="geometry">
            <mxPoint x="70" y="189" as="sourcePoint" />
            <mxPoint x="240" y="80" as="targetPoint" />
            <Array as="points">
              <mxPoint x="70" y="190" />
              <mxPoint x="120" y="190" />
              <mxPoint x="120" y="150" />
            </Array>
          </mxGeometry>
        </mxCell>
        <mxCell id="QxyZenJV8a2ze9IC9UwF-21" value="" style="endArrow=classic;html=1;rounded=0;edgeStyle=orthogonalEdgeStyle;" edge="1" parent="1">
          <mxGeometry width="50" height="50" relative="1" as="geometry">
            <mxPoint x="70" y="189" as="sourcePoint" />
            <mxPoint x="240" y="220" as="targetPoint" />
            <Array as="points">
              <mxPoint x="70" y="190" />
              <mxPoint x="120" y="190" />
              <mxPoint x="120" y="220" />
            </Array>
          </mxGeometry>
        </mxCell>
        <mxCell id="QxyZenJV8a2ze9IC9UwF-22" value="" style="endArrow=classic;html=1;rounded=0;edgeStyle=orthogonalEdgeStyle;entryX=0;entryY=0.5;entryDx=0;entryDy=0;" edge="1" parent="1" target="QxyZenJV8a2ze9IC9UwF-12">
          <mxGeometry width="50" height="50" relative="1" as="geometry">
            <mxPoint x="70" y="190" as="sourcePoint" />
            <mxPoint x="240" y="221" as="targetPoint" />
            <Array as="points">
              <mxPoint x="70" y="191" />
              <mxPoint x="120" y="191" />
              <mxPoint x="120" y="290" />
            </Array>
          </mxGeometry>
        </mxCell>
        <mxCell id="QxyZenJV8a2ze9IC9UwF-23" value="" style="endArrow=classic;html=1;rounded=0;edgeStyle=orthogonalEdgeStyle;entryX=0;entryY=0.5;entryDx=0;entryDy=0;" edge="1" parent="1" target="QxyZenJV8a2ze9IC9UwF-13">
          <mxGeometry width="50" height="50" relative="1" as="geometry">
            <mxPoint x="70" y="190" as="sourcePoint" />
            <mxPoint x="240" y="290" as="targetPoint" />
            <Array as="points">
              <mxPoint x="70" y="191" />
              <mxPoint x="120" y="191" />
              <mxPoint x="120" y="360" />
            </Array>
          </mxGeometry>
        </mxCell>
        <mxCell id="QxyZenJV8a2ze9IC9UwF-24" value="" style="endArrow=classic;html=1;rounded=0;edgeStyle=orthogonalEdgeStyle;entryX=0;entryY=0.5;entryDx=0;entryDy=0;" edge="1" parent="1" target="QxyZenJV8a2ze9IC9UwF-17">
          <mxGeometry width="50" height="50" relative="1" as="geometry">
            <mxPoint x="70" y="190" as="sourcePoint" />
            <mxPoint x="240" y="360" as="targetPoint" />
            <Array as="points">
              <mxPoint x="70" y="191" />
              <mxPoint x="120" y="191" />
              <mxPoint x="120" y="430" />
            </Array>
          </mxGeometry>
        </mxCell>
        <mxCell id="QxyZenJV8a2ze9IC9UwF-26" value="[ Member ]&lt;br&gt;- Member always log in&lt;br&gt;&lt;br&gt;&lt;br&gt;[ Google Drive ]&amp;nbsp;&lt;br&gt;- All functions in Google Drive includes Move Directory function" style="whiteSpace=wrap;html=1;shape=mxgraph.basic.document" vertex="1" parent="1">
          <mxGeometry x="490" y="50" width="340" height="440" as="geometry" />
        </mxCell>
        <mxCell id="QxyZenJV8a2ze9IC9UwF-27" value="" style="endArrow=none;dashed=1;html=1;dashPattern=1 3;strokeWidth=2;rounded=0;edgeStyle=orthogonalEdgeStyle;exitX=1;exitY=0.5;exitDx=0;exitDy=0;" edge="1" parent="1" source="QxyZenJV8a2ze9IC9UwF-28">
          <mxGeometry width="50" height="50" relative="1" as="geometry">
            <mxPoint x="390" y="190" as="sourcePoint" />
            <mxPoint x="490" y="265" as="targetPoint" />
            <Array as="points">
              <mxPoint x="490" y="265" />
            </Array>
          </mxGeometry>
        </mxCell>
        <mxCell id="QxyZenJV8a2ze9IC9UwF-29" value="GoogleDrive" style="text;html=1;strokeColor=none;fillColor=none;align=center;verticalAlign=middle;whiteSpace=wrap;rounded=0;" vertex="1" parent="1">
          <mxGeometry x="225" y="10" width="60" height="30" as="geometry" />
        </mxCell>
      </root>
    </mxGraphModel>
  </diagram>
</mxfile>
